<svg width="358" height="147" viewBox="0 0 358 147" fill="none" xmlns="http://www.w3.org/2000/svg">
<g filter="url(#filter0_d_298_1588)">
<path d="M106.9 106.788C103.124 106.788 99.7644 106.052 96.8204 104.58C93.8764 103.108 91.5724 100.996 89.9084 98.2437C88.2444 95.4277 87.4124 92.1317 87.4124 88.3557C87.4124 86.3717 87.6364 84.3877 88.0844 82.4037C89.1724 77.4117 91.1244 73.0597 93.9404 69.3477C96.7564 65.6357 100.18 62.7877 104.212 60.8037C108.308 58.8197 112.692 57.8277 117.364 57.8277C121.908 57.8277 125.812 58.7557 129.076 60.6117C132.34 62.4677 134.676 65.1557 136.084 68.6757L138.1 59.2677H143.188L133.396 105.348H128.404L130.324 95.9397C127.38 99.5877 123.988 102.308 120.148 104.1C116.372 105.892 111.956 106.788 106.9 106.788ZM108.532 102.756C113.396 102.756 117.908 101.508 122.068 99.0117C126.228 96.5157 129.46 93.0917 131.764 88.7397L134.452 76.1637C134.004 71.6197 132.308 68.1317 129.364 65.6997C126.484 63.2037 122.452 61.9557 117.268 61.9557C113.62 61.9557 110.068 62.8197 106.612 64.5477C103.22 66.2117 100.308 68.6117 97.8764 71.7477C95.4444 74.8197 93.8124 78.3717 92.9804 82.4037C92.5964 84.3237 92.4044 86.1477 92.4044 87.8757C92.4044 92.5477 93.8124 96.1957 96.6284 98.8197C99.5084 101.444 103.476 102.756 108.532 102.756ZM163.105 48.3237C162.273 48.3237 161.569 48.0677 160.993 47.5557C160.481 47.0437 160.225 46.4037 160.225 45.6357C160.225 45.2517 160.257 44.9637 160.321 44.7717C160.513 43.8117 160.993 42.9797 161.761 42.2757C162.593 41.5717 163.521 41.2197 164.545 41.2197C165.505 41.2197 166.273 41.5717 166.849 42.2757C167.425 42.9797 167.617 43.8117 167.425 44.7717C167.169 45.7957 166.625 46.6597 165.793 47.3637C164.961 48.0037 164.065 48.3237 163.105 48.3237ZM158.305 59.2677H163.297L153.505 105.348H148.513L158.305 59.2677ZM167.773 101.508L221.629 42.5637H181.405L182.269 38.2437H228.541L227.677 42.1797L173.917 101.124H216.445L215.581 105.348H167.005L167.773 101.508ZM245.369 106.788C241.593 106.788 238.233 106.052 235.289 104.58C232.345 103.108 230.041 100.996 228.377 98.2437C226.713 95.4277 225.881 92.1317 225.881 88.3557C225.881 86.3717 226.105 84.3877 226.553 82.4037C227.641 77.4117 229.593 73.0597 232.409 69.3477C235.225 65.6357 238.649 62.7877 242.681 60.8037C246.777 58.8197 251.161 57.8277 255.833 57.8277C260.377 57.8277 264.281 58.7557 267.545 60.6117C270.809 62.4677 273.145 65.1557 274.553 68.6757L276.569 59.2677H281.657L271.865 105.348H266.873L268.793 95.9397C265.849 99.5877 262.457 102.308 258.617 104.1C254.841 105.892 250.425 106.788 245.369 106.788ZM247.001 102.756C251.865 102.756 256.377 101.508 260.537 99.0117C264.697 96.5157 267.929 93.0917 270.233 88.7397L272.921 76.1637C272.473 71.6197 270.777 68.1317 267.833 65.6997C264.953 63.2037 260.921 61.9557 255.737 61.9557C252.089 61.9557 248.537 62.8197 245.081 64.5477C241.689 66.2117 238.777 68.6117 236.345 71.7477C233.913 74.8197 232.281 78.3717 231.449 82.4037C231.065 84.3237 230.873 86.1477 230.873 87.8757C230.873 92.5477 232.281 96.1957 235.097 98.8197C237.977 101.444 241.945 102.756 247.001 102.756ZM295.717 59.2677H300.613L298.597 68.4837C304.677 61.3797 312.485 57.8277 322.021 57.8277C327.845 57.8277 332.549 59.4917 336.133 62.8197C339.781 66.1477 341.605 70.6597 341.605 76.3557C341.605 78.3397 341.381 80.3237 340.933 82.3077C339.909 87.1717 337.957 91.4597 335.077 95.1717C332.261 98.8837 328.805 101.764 324.709 103.812C320.677 105.796 316.293 106.788 311.557 106.788C307.141 106.788 303.301 105.924 300.037 104.196C296.837 102.404 294.437 99.7157 292.837 96.1317L286.405 126.372H281.413L295.717 59.2677ZM311.653 102.756C315.365 102.756 318.917 101.924 322.309 100.26C325.701 98.5317 328.581 96.1317 330.949 93.0597C333.381 89.9237 335.045 86.3397 335.941 82.3077C336.325 80.3877 336.517 78.5957 336.517 76.9317C336.517 72.2597 335.109 68.6117 332.293 65.9877C329.477 63.2997 325.509 61.9557 320.389 61.9557C315.525 61.9557 311.013 63.2037 306.853 65.6997C302.693 68.1957 299.461 71.6197 297.157 75.9717L294.469 88.5477C294.789 92.8997 296.517 96.3557 299.653 98.9157C302.789 101.476 306.789 102.756 311.653 102.756Z" fill="white"/>
<path d="M22.9063 107.651C6.52895 112.211 24.0546 12.5015 26.8261 39.0352C28.6254 56.2612 26.8261 83.7717 26.8261 83.7717C26.8261 83.7717 40.7812 29.7679 48.4783 45.6852C53.2871 55.6298 48.4783 78.0285 48.4783 78.0285C48.4783 78.0285 71.3376 31.623 92.3427 23.317C120.75 12.084 49.5707 157.255 41.1987 111.883C38.423 96.8404 41.1987 71.6808 41.1987 71.6808C41.1987 71.6808 33.9811 104.568 22.9063 107.651Z" fill="url(#paint0_linear_298_1588)"/>
</g>
<defs>
<filter id="filter0_d_298_1588" x="0" y="-11.6523" width="369" height="160.946" filterUnits="userSpaceOnUse" color-interpolation-filters="sRGB">
<feFlood flood-opacity="0" result="BackgroundImageFix"/>
<feColorMatrix in="SourceAlpha" type="matrix" values="0 0 0 0 0 0 0 0 0 0 0 0 0 0 0 0 0 0 127 0" result="hardAlpha"/>
<feOffset dy="4"/>
<feGaussianBlur stdDeviation="8"/>
<feComposite in2="hardAlpha" operator="out"/>
<feColorMatrix type="matrix" values="0 0 0 0 0 0 0 0 0 0 0 0 0 0 0 0 0 0 0.25 0"/>
<feBlend mode="normal" in2="BackgroundImageFix" result="effect1_dropShadow_298_1588"/>
<feBlend mode="normal" in="SourceGraphic" in2="effect1_dropShadow_298_1588" result="shape"/>
</filter>
<linearGradient id="paint0_linear_298_1588" x1="57.5" y1="22.6948" x2="57.5" y2="120.695" gradientUnits="userSpaceOnUse">
<stop stop-color="#667EFF"/>
<stop offset="0.64" stop-color="#3051FF"/>
<stop offset="1" stop-color="#102384"/>
</linearGradient>
</defs>
</svg>
