<svg width="1086" height="1000" viewBox="0 0 1086 1000" fill="none" xmlns="http://www.w3.org/2000/svg">
<rect width="1086" height="1000" rx="30" fill="#E9ECEF"/>
<path d="M636 964V969M636 974C631.029 974 627 969.971 627 965C627 960.029 631.029 956 636 956C640.971 956 645 960.029 645 965C645 969.971 640.971 974 636 974ZM636.05 961V961.1L635.95 961.1V961H636.05Z" stroke="#667EFF" stroke-width="2" stroke-linecap="round" stroke-linejoin="round"/>
<path d="M448.12 958.06V959.54H444.32V972H442.5V959.54H438.68V958.06H448.12ZM460.36 966.1C460.36 966.447 460.34 966.813 460.3 967.2H451.54C451.607 968.28 451.974 969.127 452.64 969.74C453.32 970.34 454.14 970.64 455.1 970.64C455.887 970.64 456.54 970.46 457.06 970.1C457.594 969.727 457.967 969.233 458.18 968.62H460.14C459.847 969.673 459.26 970.533 458.38 971.2C457.5 971.853 456.407 972.18 455.1 972.18C454.06 972.18 453.127 971.947 452.3 971.48C451.487 971.013 450.847 970.353 450.38 969.5C449.914 968.633 449.68 967.633 449.68 966.5C449.68 965.367 449.907 964.373 450.36 963.52C450.814 962.667 451.447 962.013 452.26 961.56C453.087 961.093 454.034 960.86 455.1 960.86C456.14 960.86 457.06 961.087 457.86 961.54C458.66 961.993 459.274 962.62 459.7 963.42C460.14 964.207 460.36 965.1 460.36 966.1ZM458.48 965.72C458.48 965.027 458.327 964.433 458.02 963.94C457.714 963.433 457.294 963.053 456.76 962.8C456.24 962.533 455.66 962.4 455.02 962.4C454.1 962.4 453.314 962.693 452.66 963.28C452.02 963.867 451.654 964.68 451.56 965.72H458.48ZM464.583 962.82C464.903 962.193 465.356 961.707 465.943 961.36C466.543 961.013 467.269 960.84 468.123 960.84V962.72H467.643C465.603 962.72 464.583 963.827 464.583 966.04V972H462.763V961.04H464.583V962.82ZM483.404 960.84C484.257 960.84 485.017 961.02 485.684 961.38C486.35 961.727 486.877 962.253 487.264 962.96C487.65 963.667 487.844 964.527 487.844 965.54V972H486.044V965.8C486.044 964.707 485.77 963.873 485.224 963.3C484.69 962.713 483.964 962.42 483.044 962.42C482.097 962.42 481.344 962.727 480.784 963.34C480.224 963.94 479.944 964.813 479.944 965.96V972H478.144V965.8C478.144 964.707 477.87 963.873 477.324 963.3C476.79 962.713 476.064 962.42 475.144 962.42C474.197 962.42 473.444 962.727 472.884 963.34C472.324 963.94 472.044 964.813 472.044 965.96V972H470.224V961.04H472.044V962.62C472.404 962.047 472.884 961.607 473.484 961.3C474.097 960.993 474.77 960.84 475.504 960.84C476.424 960.84 477.237 961.047 477.944 961.46C478.65 961.873 479.177 962.48 479.524 963.28C479.83 962.507 480.337 961.907 481.044 961.48C481.75 961.053 482.537 960.84 483.404 960.84ZM495.609 972.18C494.582 972.18 493.649 971.947 492.809 971.48C491.982 971.013 491.329 970.353 490.849 969.5C490.382 968.633 490.149 967.633 490.149 966.5C490.149 965.38 490.389 964.393 490.869 963.54C491.362 962.673 492.029 962.013 492.869 961.56C493.709 961.093 494.649 960.86 495.689 960.86C496.729 960.86 497.669 961.093 498.509 961.56C499.349 962.013 500.009 962.667 500.489 963.52C500.982 964.373 501.229 965.367 501.229 966.5C501.229 967.633 500.976 968.633 500.469 969.5C499.976 970.353 499.302 971.013 498.449 971.48C497.596 971.947 496.649 972.18 495.609 972.18ZM495.609 970.58C496.262 970.58 496.876 970.427 497.449 970.12C498.022 969.813 498.482 969.353 498.829 968.74C499.189 968.127 499.369 967.38 499.369 966.5C499.369 965.62 499.196 964.873 498.849 964.26C498.502 963.647 498.049 963.193 497.489 962.9C496.929 962.593 496.322 962.44 495.669 962.44C495.002 962.44 494.389 962.593 493.829 962.9C493.282 963.193 492.842 963.647 492.509 964.26C492.176 964.873 492.009 965.62 492.009 966.5C492.009 967.393 492.169 968.147 492.489 968.76C492.822 969.373 493.262 969.833 493.809 970.14C494.356 970.433 494.956 970.58 495.609 970.58ZM507.502 972.18C506.662 972.18 505.909 972.04 505.242 971.76C504.575 971.467 504.049 971.067 503.662 970.56C503.275 970.04 503.062 969.447 503.022 968.78H504.902C504.955 969.327 505.209 969.773 505.662 970.12C506.129 970.467 506.735 970.64 507.482 970.64C508.175 970.64 508.722 970.487 509.122 970.18C509.522 969.873 509.722 969.487 509.722 969.02C509.722 968.54 509.509 968.187 509.082 967.96C508.655 967.72 507.995 967.487 507.102 967.26C506.289 967.047 505.622 966.833 505.102 966.62C504.595 966.393 504.155 966.067 503.782 965.64C503.422 965.2 503.242 964.627 503.242 963.92C503.242 963.36 503.409 962.847 503.742 962.38C504.075 961.913 504.549 961.547 505.162 961.28C505.775 961 506.475 960.86 507.262 960.86C508.475 960.86 509.455 961.167 510.202 961.78C510.949 962.393 511.349 963.233 511.402 964.3H509.582C509.542 963.727 509.309 963.267 508.882 962.92C508.469 962.573 507.909 962.4 507.202 962.4C506.549 962.4 506.029 962.54 505.642 962.82C505.255 963.1 505.062 963.467 505.062 963.92C505.062 964.28 505.175 964.58 505.402 964.82C505.642 965.047 505.935 965.233 506.282 965.38C506.642 965.513 507.135 965.667 507.762 965.84C508.549 966.053 509.189 966.267 509.682 966.48C510.175 966.68 510.595 966.987 510.942 967.4C511.302 967.813 511.489 968.353 511.502 969.02C511.502 969.62 511.335 970.16 511.002 970.64C510.669 971.12 510.195 971.5 509.582 971.78C508.982 972.047 508.289 972.18 507.502 972.18ZM529.403 966.1C529.403 966.447 529.383 966.813 529.343 967.2H520.583C520.65 968.28 521.017 969.127 521.683 969.74C522.363 970.34 523.183 970.64 524.143 970.64C524.93 970.64 525.583 970.46 526.103 970.1C526.637 969.727 527.01 969.233 527.223 968.62H529.183C528.89 969.673 528.303 970.533 527.423 971.2C526.543 971.853 525.45 972.18 524.143 972.18C523.103 972.18 522.17 971.947 521.343 971.48C520.53 971.013 519.89 970.353 519.423 969.5C518.957 968.633 518.723 967.633 518.723 966.5C518.723 965.367 518.95 964.373 519.403 963.52C519.857 962.667 520.49 962.013 521.303 961.56C522.13 961.093 523.077 960.86 524.143 960.86C525.183 960.86 526.103 961.087 526.903 961.54C527.703 961.993 528.317 962.62 528.743 963.42C529.183 964.207 529.403 965.1 529.403 966.1ZM527.523 965.72C527.523 965.027 527.37 964.433 527.063 963.94C526.757 963.433 526.337 963.053 525.803 962.8C525.283 962.533 524.703 962.4 524.063 962.4C523.143 962.4 522.357 962.693 521.703 963.28C521.063 963.867 520.697 964.68 520.603 965.72H527.523ZM538.958 963.06C539.318 962.433 539.851 961.913 540.558 961.5C541.278 961.073 542.111 960.86 543.058 960.86C544.031 960.86 544.911 961.093 545.698 961.56C546.498 962.027 547.124 962.687 547.578 963.54C548.031 964.38 548.258 965.36 548.258 966.48C548.258 967.587 548.031 968.573 547.578 969.44C547.124 970.307 546.498 970.98 545.698 971.46C544.911 971.94 544.031 972.18 543.058 972.18C542.124 972.18 541.298 971.973 540.578 971.56C539.871 971.133 539.331 970.607 538.958 969.98V977.2H537.138V961.04H538.958V963.06ZM546.398 966.48C546.398 965.653 546.231 964.933 545.898 964.32C545.564 963.707 545.111 963.24 544.538 962.92C543.978 962.6 543.358 962.44 542.678 962.44C542.011 962.44 541.391 962.607 540.818 962.94C540.258 963.26 539.804 963.733 539.458 964.36C539.124 964.973 538.958 965.687 538.958 966.5C538.958 967.327 539.124 968.053 539.458 968.68C539.804 969.293 540.258 969.767 540.818 970.1C541.391 970.42 542.011 970.58 542.678 970.58C543.358 970.58 543.978 970.42 544.538 970.1C545.111 969.767 545.564 969.293 545.898 968.68C546.231 968.053 546.398 967.32 546.398 966.48ZM555.433 972.18C554.407 972.18 553.473 971.947 552.633 971.48C551.807 971.013 551.153 970.353 550.673 969.5C550.207 968.633 549.973 967.633 549.973 966.5C549.973 965.38 550.213 964.393 550.693 963.54C551.187 962.673 551.853 962.013 552.693 961.56C553.533 961.093 554.473 960.86 555.513 960.86C556.553 960.86 557.493 961.093 558.333 961.56C559.173 962.013 559.833 962.667 560.313 963.52C560.807 964.373 561.053 965.367 561.053 966.5C561.053 967.633 560.8 968.633 560.293 969.5C559.8 970.353 559.127 971.013 558.273 971.48C557.42 971.947 556.473 972.18 555.433 972.18ZM555.433 970.58C556.087 970.58 556.7 970.427 557.273 970.12C557.847 969.813 558.307 969.353 558.653 968.74C559.013 968.127 559.193 967.38 559.193 966.5C559.193 965.62 559.02 964.873 558.673 964.26C558.327 963.647 557.873 963.193 557.313 962.9C556.753 962.593 556.147 962.44 555.493 962.44C554.827 962.44 554.213 962.593 553.653 962.9C553.107 963.193 552.667 963.647 552.333 964.26C552 964.873 551.833 965.62 551.833 966.5C551.833 967.393 551.993 968.147 552.313 968.76C552.647 969.373 553.087 969.833 553.633 970.14C554.18 970.433 554.78 970.58 555.433 970.58ZM565.266 957.2V972H563.446V957.2H565.266ZM570.188 961.04V972H568.368V961.04H570.188ZM571.228 957.94L566.968 960.22V958.86L571.228 956.36V957.94ZM575.51 962.54V969C575.51 969.533 575.623 969.913 575.85 970.14C576.077 970.353 576.47 970.46 577.03 970.46H578.37V972H576.73C575.717 972 574.957 971.767 574.45 971.3C573.943 970.833 573.69 970.067 573.69 969V962.54H572.27V961.04H573.69V958.28H575.51V961.04H578.37V962.54H575.51ZM581.515 959.26C581.168 959.26 580.875 959.14 580.635 958.9C580.395 958.66 580.275 958.367 580.275 958.02C580.275 957.673 580.395 957.38 580.635 957.14C580.875 956.9 581.168 956.78 581.515 956.78C581.848 956.78 582.128 956.9 582.355 957.14C582.595 957.38 582.715 957.673 582.715 958.02C582.715 958.367 582.595 958.66 582.355 958.9C582.128 959.14 581.848 959.26 581.515 959.26ZM582.395 961.04V972H580.575V961.04H582.395ZM584.817 966.5C584.817 965.367 585.044 964.38 585.497 963.54C585.95 962.687 586.577 962.027 587.377 961.56C588.19 961.093 589.117 960.86 590.157 960.86C591.504 960.86 592.61 961.187 593.477 961.84C594.357 962.493 594.937 963.4 595.217 964.56H593.257C593.07 963.893 592.704 963.367 592.157 962.98C591.624 962.593 590.957 962.4 590.157 962.4C589.117 962.4 588.277 962.76 587.637 963.48C586.997 964.187 586.677 965.193 586.677 966.5C586.677 967.82 586.997 968.84 587.637 969.56C588.277 970.28 589.117 970.64 590.157 970.64C590.957 970.64 591.624 970.453 592.157 970.08C592.69 969.707 593.057 969.173 593.257 968.48H595.217C594.924 969.6 594.337 970.5 593.457 971.18C592.577 971.847 591.477 972.18 590.157 972.18C589.117 972.18 588.19 971.947 587.377 971.48C586.577 971.013 585.95 970.353 585.497 969.5C585.044 968.647 584.817 967.647 584.817 966.5ZM596.965 966.48C596.965 965.36 597.192 964.38 597.645 963.54C598.099 962.687 598.719 962.027 599.505 961.56C600.305 961.093 601.192 960.86 602.165 960.86C603.125 960.86 603.959 961.067 604.665 961.48C605.372 961.893 605.899 962.413 606.245 963.04V961.04H608.085V972H606.245V969.96C605.885 970.6 605.345 971.133 604.625 971.56C603.919 971.973 603.092 972.18 602.145 972.18C601.172 972.18 600.292 971.94 599.505 971.46C598.719 970.98 598.099 970.307 597.645 969.44C597.192 968.573 596.965 967.587 596.965 966.48ZM606.245 966.5C606.245 965.673 606.079 964.953 605.745 964.34C605.412 963.727 604.959 963.26 604.385 962.94C603.825 962.607 603.205 962.44 602.525 962.44C601.845 962.44 601.225 962.6 600.665 962.92C600.105 963.24 599.659 963.707 599.325 964.32C598.992 964.933 598.825 965.653 598.825 966.48C598.825 967.32 598.992 968.053 599.325 968.68C599.659 969.293 600.105 969.767 600.665 970.1C601.225 970.42 601.845 970.58 602.525 970.58C603.205 970.58 603.825 970.42 604.385 970.1C604.959 969.767 605.412 969.293 605.745 968.68C606.079 968.053 606.245 967.327 606.245 966.5ZM615.041 972.18C614.201 972.18 613.448 972.04 612.781 971.76C612.114 971.467 611.588 971.067 611.201 970.56C610.814 970.04 610.601 969.447 610.561 968.78H612.441C612.494 969.327 612.748 969.773 613.201 970.12C613.668 970.467 614.274 970.64 615.021 970.64C615.714 970.64 616.261 970.487 616.661 970.18C617.061 969.873 617.261 969.487 617.261 969.02C617.261 968.54 617.048 968.187 616.621 967.96C616.194 967.72 615.534 967.487 614.641 967.26C613.828 967.047 613.161 966.833 612.641 966.62C612.134 966.393 611.694 966.067 611.321 965.64C610.961 965.2 610.781 964.627 610.781 963.92C610.781 963.36 610.948 962.847 611.281 962.38C611.614 961.913 612.088 961.547 612.701 961.28C613.314 961 614.014 960.86 614.801 960.86C616.014 960.86 616.994 961.167 617.741 961.78C618.488 962.393 618.888 963.233 618.941 964.3H617.121C617.081 963.727 616.848 963.267 616.421 962.92C616.008 962.573 615.448 962.4 614.741 962.4C614.088 962.4 613.568 962.54 613.181 962.82C612.794 963.1 612.601 963.467 612.601 963.92C612.601 964.28 612.714 964.58 612.941 964.82C613.181 965.047 613.474 965.233 613.821 965.38C614.181 965.513 614.674 965.667 615.301 965.84C616.088 966.053 616.728 966.267 617.221 966.48C617.714 966.68 618.134 966.987 618.481 967.4C618.841 967.813 619.028 968.353 619.041 969.02C619.041 969.62 618.874 970.16 618.541 970.64C618.208 971.12 617.734 971.5 617.121 971.78C616.521 972.047 615.828 972.18 615.041 972.18Z" fill="#667EFF"/>
<path d="M417.831 974.539C413.49 975.749 418.135 949.296 418.87 956.335C419.346 960.905 418.87 968.204 418.87 968.204C418.87 968.204 422.569 953.877 424.609 958.099C425.883 960.738 424.609 966.68 424.609 966.68C424.609 966.68 430.668 954.369 436.235 952.165C443.765 949.185 424.898 987.7 422.679 975.662C421.943 971.671 422.679 964.996 422.679 964.996C422.679 964.996 420.766 973.721 417.831 974.539Z" fill="url(#paint0_linear_220_1350)"/>
<g clip-path="url(#clip0_220_1350)">
<path d="M759.749 737.504C749.302 728.71 742.956 714.818 744.62 701.294C746.284 687.77 756.592 675.337 769.962 672.465C783.332 669.593 798.572 677.543 802.633 690.554C804.868 665.47 807.444 639.334 820.831 617.973C832.953 598.63 853.948 584.79 876.702 582.314C899.456 579.838 923.414 589.19 937.605 607.081C951.796 624.972 955.27 650.983 945.331 671.523C938.01 686.655 924.52 697.916 910.387 707.078C864.717 736.433 809.943 748.37 756.141 740.694L759.749 737.504Z" fill="#66FF6C"/>
<path d="M915.103 589.708C896.328 604.942 879.104 621.981 863.68 640.577C839.542 669.58 820.008 702.098 805.761 736.998C804.718 739.544 808.868 740.652 809.899 738.134C833.211 681.415 870.425 631.423 918.138 592.731C920.281 590.993 917.228 587.984 915.103 589.708Z" fill="#50C255"/>
<path d="M397.684 735.115C412.033 723.036 420.748 703.955 418.463 685.38C416.177 666.805 402.02 649.729 383.656 645.784C365.293 641.839 344.359 652.759 338.782 670.629C335.712 636.176 332.175 600.279 313.787 570.938C297.138 544.372 268.301 525.362 237.048 521.961C205.795 518.56 172.89 531.405 153.399 555.979C133.907 580.552 129.135 616.278 142.786 644.49C152.842 665.274 171.37 680.741 190.782 693.324C252.713 733.47 329.539 750.213 402.639 739.495" fill="#66FF6C"/>
<path d="M184.304 532.117C210.092 553.041 233.749 576.443 254.934 601.985C276.122 627.501 294.776 655.004 310.634 684.107C319.498 700.433 327.46 717.229 334.486 734.42C335.918 737.916 330.218 739.439 328.802 735.981C316.357 705.674 300.961 676.655 282.835 649.34C264.796 622.124 244.15 596.715 221.186 573.471C208.197 560.33 194.493 547.911 180.136 536.269C177.193 533.882 181.386 529.749 184.304 532.117Z" fill="#50C255"/>
<path d="M720.738 741.936H378.393V392.016C378.393 317.568 439.192 257 513.924 257H585.207C659.939 257 720.738 317.568 720.738 392.016V741.936Z" fill="#1E2126"/>
<path d="M649.455 741.936H378.393V392.016C378.318 363.489 387.386 335.683 404.276 312.647C404.899 311.801 405.52 310.967 406.16 310.141C414.33 299.467 424.052 290.067 435.005 282.25C435.624 281.802 436.245 281.361 436.876 280.92C446.041 274.601 455.956 269.436 466.394 265.541C467.014 265.307 467.645 265.073 468.276 264.848C477.717 261.492 487.503 259.193 497.454 257.993C498.071 257.909 498.704 257.844 499.338 257.778C509.035 256.745 518.815 256.745 528.512 257.778C529.144 257.844 529.777 257.909 530.402 257.994C540.35 259.194 550.133 261.492 559.571 264.848C560.203 265.073 560.834 265.307 561.456 265.542C571.765 269.387 581.563 274.476 590.631 280.693C591.261 281.125 591.892 281.565 592.513 282.006C598.653 286.372 604.42 291.236 609.756 296.548C614.034 300.81 618.021 305.352 621.69 310.144C622.329 310.967 622.95 311.801 623.571 312.645C640.462 335.682 649.53 363.488 649.455 392.016V741.936Z" fill="#30353B"/>
<path d="M627.414 585.43C635.702 585.43 642.421 578.737 642.421 570.48C642.421 562.224 635.702 555.53 627.414 555.53C619.126 555.53 612.407 562.224 612.407 570.48C612.407 578.737 619.126 585.43 627.414 585.43Z" fill="#667EFF"/>
<path d="M692.693 731.455H681.194L675.723 687.271L692.695 687.272L692.693 731.455Z" fill="#FFB8B8"/>
<path d="M672.98 728.182H695.156V742.092H659.017C659.017 740.265 659.378 738.456 660.08 736.769C660.782 735.081 661.81 733.548 663.107 732.256C664.403 730.965 665.943 729.94 667.637 729.241C669.331 728.542 671.146 728.182 672.98 728.182Z" fill="#2F2E41"/>
<path d="M749.907 731.455H738.407L732.937 687.271L749.908 687.272L749.907 731.455Z" fill="#FFB8B8"/>
<path d="M730.194 728.182H752.37V742.092H716.231C716.231 740.265 716.592 738.456 717.294 736.769C717.996 735.081 719.024 733.548 720.321 732.256C721.617 730.965 723.156 729.94 724.85 729.241C726.545 728.542 728.36 728.182 730.194 728.182Z" fill="#2F2E41"/>
<path d="M635.009 573.441C634.182 572.227 633.632 570.847 633.398 569.398C633.164 567.949 633.252 566.467 633.655 565.056C634.058 563.644 634.767 562.338 635.732 561.23C636.697 560.121 637.894 559.236 639.24 558.638L678.329 451.311L697.563 461.767L652.932 564.333C653.79 566.651 653.766 569.202 652.863 571.503C651.959 573.804 650.24 575.695 648.031 576.818C645.822 577.94 643.276 578.217 640.876 577.595C638.476 576.972 636.388 575.494 635.009 573.441Z" fill="#FFB8B8"/>
<path d="M744.033 593.609C742.755 592.879 741.653 591.879 740.805 590.679C739.957 589.479 739.384 588.108 739.125 586.664C738.866 585.219 738.929 583.736 739.308 582.318C739.687 580.9 740.374 579.582 741.319 578.457L729.21 464.922L751.099 465.919L756.132 577.594C757.924 579.302 759.024 581.606 759.226 584.068C759.427 586.531 758.714 588.981 757.223 590.955C755.731 592.929 753.565 594.29 751.134 594.779C748.703 595.268 746.176 594.852 744.033 593.609Z" fill="#FFB8B8"/>
<path d="M709.113 431.431C721.836 431.431 732.15 421.156 732.15 408.482C732.15 395.807 721.836 385.533 709.113 385.533C696.39 385.533 686.077 395.807 686.077 408.482C686.077 421.156 696.39 431.431 709.113 431.431Z" fill="#FFB8B8"/>
<path d="M743.885 567.788H674.435L674.518 567.249C674.643 566.445 686.896 486.484 677.859 460.324C676.952 457.753 677.032 454.939 678.083 452.424C679.134 449.908 681.082 447.869 683.551 446.698C696.468 440.638 721.264 433.176 742.191 451.285C745.271 453.993 747.676 457.379 749.215 461.173C750.755 464.967 751.388 469.066 751.063 473.145L743.885 567.788Z" fill="#667EFF"/>
<path d="M687.774 498.301L656.506 491.981L671.163 457.382C672.04 454.031 674.215 451.163 677.212 449.408C680.209 447.652 683.782 447.153 687.148 448.018C690.514 448.884 693.398 451.044 695.167 454.025C696.937 457.006 697.447 460.565 696.586 463.92L687.774 498.301Z" fill="#667EFF"/>
<path d="M727.82 510.034L725.94 467.108C724.515 459.038 729.152 451.41 736.283 450.163C743.416 448.921 750.382 454.518 751.814 462.646L758.879 502.757L727.82 510.034Z" fill="#667EFF"/>
<path d="M741.575 562.648C752.75 605.047 753.969 658.953 750.954 717.753L735.947 715.885L708.747 603.761L693.74 717.753L676.858 716.819C671.814 655.123 666.903 602.158 674.982 567.32L741.575 562.648Z" fill="#2F2E41"/>
<path d="M724.292 426.218C719.994 430.778 712.013 428.33 711.453 422.1C711.409 421.616 711.412 421.129 711.462 420.646C711.752 417.886 713.352 415.381 712.969 412.467C712.882 411.742 712.611 411.051 712.181 410.459C708.756 405.891 700.717 412.502 697.485 408.367C695.503 405.831 697.833 401.838 696.312 399.004C694.305 395.263 688.359 397.109 684.631 395.06C680.483 392.78 680.731 386.44 683.462 382.584C686.792 377.88 692.631 375.371 698.397 375.009C704.163 374.647 709.889 376.2 715.272 378.29C721.388 380.665 727.454 383.946 731.218 389.304C735.795 395.819 736.235 404.579 733.946 412.197C732.554 416.832 727.801 422.493 724.292 426.218Z" fill="#2F2E41"/>
<path d="M922.845 742.538H230.376C230.08 742.537 229.797 742.419 229.588 742.211C229.379 742.002 229.262 741.72 229.262 741.425C229.262 741.131 229.379 740.848 229.588 740.64C229.797 740.431 230.08 740.313 230.376 740.312H922.845C923.14 740.313 923.424 740.431 923.632 740.64C923.841 740.848 923.958 741.131 923.958 741.425C923.958 741.72 923.841 742.002 923.632 742.211C923.424 742.419 923.14 742.537 922.845 742.538Z" fill="#3F3D56"/>
<path d="M574.89 640.557H452.959C451.353 640.566 449.809 639.94 448.666 638.816C447.524 637.692 446.875 636.163 446.862 634.563V363.439C446.875 361.839 447.524 360.31 448.666 359.186C449.809 358.062 451.353 357.436 452.959 357.444H574.89C576.496 357.436 578.039 358.062 579.182 359.186C580.325 360.31 580.974 361.839 580.986 363.439V634.563C580.974 636.163 580.325 637.692 579.182 638.816C578.039 639.94 576.496 640.566 574.89 640.557Z" fill="white"/>
<path d="M580.986 445.172H446.862V447.041H580.986V445.172Z" fill="#1E2126"/>
<path d="M581.455 551.792H447.331V553.661H581.455V551.792Z" fill="#1E2126"/>
<path d="M490.945 357.444H489.069V641.492H490.945V357.444Z" fill="#1E2126"/>
<path d="M537.841 357.444H535.965V641.492H537.841V357.444Z" fill="#1E2126"/>
</g>
<defs>
<linearGradient id="paint0_linear_220_1350" x1="427" y1="952" x2="427" y2="978" gradientUnits="userSpaceOnUse">
<stop stop-color="#667EFF"/>
<stop offset="0.64" stop-color="#3051FF"/>
<stop offset="1" stop-color="#102384"/>
</linearGradient>
<clipPath id="clip0_220_1350">
<rect width="816" height="486" fill="white" transform="translate(135 257)"/>
</clipPath>
</defs>
</svg>
